<mxfile host="65bd71144e">
    <diagram id="NdFeqJon0fXyT9kzmWZc" name="Page-1">
        <mxGraphModel dx="426" dy="636" grid="1" gridSize="10" guides="1" tooltips="1" connect="1" arrows="1" fold="1" page="1" pageScale="1" pageWidth="850" pageHeight="1100" math="0" shadow="0">
            <root>
                <mxCell id="0"/>
                <mxCell id="1" parent="0"/>
                <mxCell id="81" value="&lt;span style=&quot;text-align: left;&quot;&gt;output to user&lt;/span&gt;&lt;br style=&quot;text-align: left;&quot;&gt;&lt;span style=&quot;text-align: left;&quot;&gt;classified output&lt;/span&gt;" style="whiteSpace=wrap;html=1;fontSize=10;fontFamily=Courier New;align=center;horizontal=1;verticalAlign=top;" parent="1" vertex="1">
                    <mxGeometry x="700" y="40" width="120" height="100" as="geometry"/>
                </mxCell>
                <mxCell id="16" style="edgeStyle=orthogonalEdgeStyle;html=1;fontFamily=Courier New;fontSize=10;" parent="1" source="4" target="13" edge="1">
                    <mxGeometry relative="1" as="geometry"/>
                </mxCell>
                <mxCell id="4" value="deep learning&lt;br&gt;model traning" style="whiteSpace=wrap;html=1;fontSize=10;fontFamily=Courier New;verticalAlign=top;align=center;" parent="1" vertex="1">
                    <mxGeometry x="40" y="160" width="120" height="90" as="geometry"/>
                </mxCell>
                <mxCell id="15" style="edgeStyle=orthogonalEdgeStyle;html=1;fontFamily=Courier New;fontSize=10;" parent="1" source="5" target="14" edge="1">
                    <mxGeometry relative="1" as="geometry"/>
                </mxCell>
                <mxCell id="5" value="machine learning&lt;br&gt;model training" style="whiteSpace=wrap;html=1;fontSize=10;fontFamily=Courier New;verticalAlign=top;align=center;" parent="1" vertex="1">
                    <mxGeometry x="200" y="270" width="120" height="90" as="geometry"/>
                </mxCell>
                <mxCell id="12" style="edgeStyle=orthogonalEdgeStyle;html=1;fontFamily=Courier New;fontSize=10;" parent="1" source="6" target="5" edge="1">
                    <mxGeometry relative="1" as="geometry"/>
                </mxCell>
                <mxCell id="6" value="feature&lt;br&gt;extraction" style="whiteSpace=wrap;html=1;fontSize=10;fontFamily=Courier New;verticalAlign=top;align=center;" parent="1" vertex="1">
                    <mxGeometry x="200" y="160" width="120" height="90" as="geometry"/>
                </mxCell>
                <mxCell id="46" style="edgeStyle=orthogonalEdgeStyle;html=1;fontFamily=Courier New;fontSize=10;exitX=0.75;exitY=0;exitDx=0;exitDy=0;align=center;verticalAlign=top;entryX=0;entryY=0.5;entryDx=0;entryDy=0;" parent="1" source="7" target="81" edge="1">
                    <mxGeometry relative="1" as="geometry">
                        <mxPoint x="650" y="50" as="targetPoint"/>
                        <Array as="points">
                            <mxPoint x="660" y="90"/>
                        </Array>
                    </mxGeometry>
                </mxCell>
                <mxCell id="54" style="edgeStyle=orthogonalEdgeStyle;html=1;fontFamily=Courier New;fontSize=10;entryX=0.25;entryY=0;entryDx=0;entryDy=0;align=center;verticalAlign=top;" parent="1" source="83" target="7" edge="1">
                    <mxGeometry relative="1" as="geometry">
                        <mxPoint x="600" y="85" as="sourcePoint"/>
                        <mxPoint x="620" y="108" as="targetPoint"/>
                        <Array as="points">
                            <mxPoint x="620" y="85"/>
                        </Array>
                    </mxGeometry>
                </mxCell>
                <mxCell id="57" style="edgeStyle=orthogonalEdgeStyle;html=1;fontFamily=Courier New;fontSize=10;exitX=0.5;exitY=1;exitDx=0;exitDy=0;align=center;verticalAlign=top;" parent="1" source="7" target="18" edge="1">
                    <mxGeometry relative="1" as="geometry"/>
                </mxCell>
                <mxCell id="61" style="edgeStyle=orthogonalEdgeStyle;html=1;exitX=0;exitY=0.75;exitDx=0;exitDy=0;fontFamily=Courier New;fontSize=10;entryX=0.5;entryY=0;entryDx=0;entryDy=0;align=center;verticalAlign=top;" parent="1" source="7" target="17" edge="1">
                    <mxGeometry relative="1" as="geometry">
                        <mxPoint x="590" y="350" as="targetPoint"/>
                        <Array as="points">
                            <mxPoint x="580" y="210"/>
                        </Array>
                    </mxGeometry>
                </mxCell>
                <mxCell id="7" value="user&lt;br&gt;interface" style="whiteSpace=wrap;html=1;fontSize=10;fontFamily=Courier New;align=center;verticalAlign=top;" parent="1" vertex="1">
                    <mxGeometry x="600" y="150" width="80" height="80" as="geometry"/>
                </mxCell>
                <mxCell id="10" style="edgeStyle=orthogonalEdgeStyle;html=1;entryX=0.5;entryY=0;entryDx=0;entryDy=0;fontFamily=Courier New;fontSize=10;" parent="1" source="8" target="6" edge="1">
                    <mxGeometry relative="1" as="geometry"/>
                </mxCell>
                <mxCell id="11" style="edgeStyle=orthogonalEdgeStyle;html=1;fontFamily=Courier New;fontSize=10;" parent="1" source="8" target="4" edge="1">
                    <mxGeometry relative="1" as="geometry"/>
                </mxCell>
                <mxCell id="8" value="pre-processing" style="whiteSpace=wrap;html=1;fontSize=10;fontFamily=Courier New;verticalAlign=top;align=center;" parent="1" vertex="1">
                    <mxGeometry x="120" y="40" width="120" height="80" as="geometry"/>
                </mxCell>
                <mxCell id="13" value="trained deep&lt;br&gt;learning model" style="whiteSpace=wrap;html=1;fontSize=10;fontFamily=Courier New;verticalAlign=top;align=center;" parent="1" vertex="1">
                    <mxGeometry x="40" y="270" width="120" height="80" as="geometry"/>
                </mxCell>
                <mxCell id="14" value="trained machine&lt;br&gt;learning model" style="whiteSpace=wrap;html=1;fontSize=10;fontFamily=Courier New;verticalAlign=top;align=center;" parent="1" vertex="1">
                    <mxGeometry x="200" y="380" width="120" height="80" as="geometry"/>
                </mxCell>
                <mxCell id="59" style="edgeStyle=orthogonalEdgeStyle;html=1;fontFamily=Courier New;fontSize=10;align=center;verticalAlign=top;entryX=0.5;entryY=0;entryDx=0;entryDy=0;" parent="1" source="17" target="89" edge="1">
                    <mxGeometry relative="1" as="geometry">
                        <mxPoint x="580" y="510" as="targetPoint"/>
                    </mxGeometry>
                </mxCell>
                <mxCell id="17" value="trained&lt;br&gt;deep&lt;br&gt;learning&lt;br&gt;model" style="whiteSpace=wrap;html=1;fontSize=10;fontFamily=Courier New;verticalAlign=top;align=center;" parent="1" vertex="1">
                    <mxGeometry x="540" y="370" width="80" height="110" as="geometry"/>
                </mxCell>
                <mxCell id="26" value="" style="edgeStyle=orthogonalEdgeStyle;html=1;fontFamily=Courier New;fontSize=10;entryX=0.5;entryY=0;entryDx=0;entryDy=0;align=center;verticalAlign=top;exitX=1;exitY=0.5;exitDx=0;exitDy=0;" parent="1" source="18" target="92" edge="1">
                    <mxGeometry relative="1" as="geometry">
                        <mxPoint x="700" y="370" as="targetPoint"/>
                        <Array as="points">
                            <mxPoint x="700" y="300"/>
                            <mxPoint x="700" y="305"/>
                        </Array>
                    </mxGeometry>
                </mxCell>
                <mxCell id="58" style="edgeStyle=orthogonalEdgeStyle;html=1;entryX=0.5;entryY=0;entryDx=0;entryDy=0;fontFamily=Courier New;fontSize=10;exitX=0;exitY=0.5;exitDx=0;exitDy=0;align=center;verticalAlign=top;" parent="1" source="18" target="17" edge="1">
                    <mxGeometry relative="1" as="geometry"/>
                </mxCell>
                <mxCell id="18" value="pre-processing&lt;br&gt;module" style="whiteSpace=wrap;html=1;fontSize=10;fontFamily=Courier New;align=center;verticalAlign=top;" parent="1" vertex="1">
                    <mxGeometry x="600" y="250" width="80" height="100" as="geometry"/>
                </mxCell>
                <mxCell id="49" value="" style="group;align=center;verticalAlign=top;" parent="1" vertex="1" connectable="0">
                    <mxGeometry x="660" y="610" width="80" height="90" as="geometry"/>
                </mxCell>
                <mxCell id="47" value="classified&lt;br&gt;output" style="whiteSpace=wrap;html=1;fontSize=10;fontFamily=Courier New;align=center;horizontal=1;verticalAlign=top;" parent="49" vertex="1">
                    <mxGeometry width="80" height="90" as="geometry"/>
                </mxCell>
                <mxCell id="48" value="&lt;div style=&quot;&quot;&gt;&lt;span style=&quot;color: rgb(186, 0, 0); font-family: monospace; font-size: 0px;&quot;&gt;cc&lt;/span&gt;&lt;br&gt;&lt;/div&gt;" style="sketch=0;pointerEvents=1;shadow=0;dashed=0;html=1;labelPosition=center;verticalLabelPosition=bottom;verticalAlign=top;align=center;outlineConnect=0;shape=mxgraph.veeam2.file;fontFamily=Courier New;fontSize=10;fillColor=#00BEF2;fontColor=#ffffff;strokeColor=#006EAF;" parent="49" vertex="1">
                    <mxGeometry x="24.29" y="40" width="31.43" height="38.75" as="geometry"/>
                </mxCell>
                <mxCell id="51" value="trained&lt;br&gt;machine&lt;br&gt;learning&lt;br&gt;model" style="whiteSpace=wrap;html=1;fontSize=10;fontFamily=Courier New;verticalAlign=top;align=center;" parent="1" vertex="1">
                    <mxGeometry x="660" y="480" width="80" height="110" as="geometry"/>
                </mxCell>
                <mxCell id="52" value="" style="edgeStyle=orthogonalEdgeStyle;html=1;fontFamily=Courier New;fontSize=10;exitX=0.5;exitY=1;exitDx=0;exitDy=0;align=center;verticalAlign=top;" parent="1" source="51" target="47" edge="1">
                    <mxGeometry relative="1" as="geometry">
                        <mxPoint x="730" y="610" as="sourcePoint"/>
                        <mxPoint x="730" y="650" as="targetPoint"/>
                    </mxGeometry>
                </mxCell>
                <mxCell id="53" style="edgeStyle=orthogonalEdgeStyle;html=1;entryX=1;entryY=0.5;entryDx=0;entryDy=0;fontFamily=Courier New;fontSize=10;align=center;verticalAlign=top;exitX=1;exitY=0.5;exitDx=0;exitDy=0;" parent="1" source="47" target="7" edge="1">
                    <mxGeometry relative="1" as="geometry">
                        <mxPoint x="820" y="570" as="sourcePoint"/>
                        <Array as="points">
                            <mxPoint x="760" y="645"/>
                            <mxPoint x="760" y="190"/>
                        </Array>
                    </mxGeometry>
                </mxCell>
                <mxCell id="69" value="" style="verticalLabelPosition=bottom;html=1;verticalAlign=top;align=center;strokeColor=none;fillColor=#00BEF2;shape=mxgraph.azure.script_file;pointerEvents=1;fontFamily=Courier New;fontSize=10;" parent="1" vertex="1">
                    <mxGeometry x="160" y="70" width="40" height="40" as="geometry"/>
                </mxCell>
                <mxCell id="70" value="" style="verticalLabelPosition=bottom;html=1;verticalAlign=top;align=center;strokeColor=none;fillColor=#00BEF2;shape=mxgraph.azure.script_file;pointerEvents=1;fontFamily=Courier New;fontSize=10;" parent="1" vertex="1">
                    <mxGeometry x="80" y="200" width="40" height="40" as="geometry"/>
                </mxCell>
                <mxCell id="71" value="" style="verticalLabelPosition=bottom;html=1;verticalAlign=top;align=center;strokeColor=none;fillColor=#00BEF2;shape=mxgraph.azure.script_file;pointerEvents=1;fontFamily=Courier New;fontSize=10;" parent="1" vertex="1">
                    <mxGeometry x="240" y="200" width="40" height="40" as="geometry"/>
                </mxCell>
                <mxCell id="72" value="" style="verticalLabelPosition=bottom;html=1;verticalAlign=top;align=center;strokeColor=none;fillColor=#00BEF2;shape=mxgraph.azure.script_file;pointerEvents=1;fontFamily=Courier New;fontSize=10;" parent="1" vertex="1">
                    <mxGeometry x="240" y="310" width="40" height="40" as="geometry"/>
                </mxCell>
                <mxCell id="73" value="" style="verticalLabelPosition=bottom;html=1;verticalAlign=top;align=center;strokeColor=none;fillColor=#00BEF2;shape=mxgraph.azure.script_file;pointerEvents=1;fontFamily=Courier New;fontSize=10;" parent="1" vertex="1">
                    <mxGeometry x="620" y="300" width="40" height="40" as="geometry"/>
                </mxCell>
                <mxCell id="75" value="" style="shape=datastore;whiteSpace=wrap;html=1;labelPosition=center;verticalLabelPosition=bottom;align=center;verticalAlign=top;fontFamily=Courier New;fontSize=10;fillColor=#00BEF2;fontColor=#ffffff;strokeColor=#006EAF;" parent="1" vertex="1">
                    <mxGeometry x="82.5" y="305" width="35" height="40" as="geometry"/>
                </mxCell>
                <mxCell id="76" value="" style="shape=datastore;whiteSpace=wrap;html=1;labelPosition=center;verticalLabelPosition=bottom;align=center;verticalAlign=top;fontFamily=Courier New;fontSize=10;fillColor=#00BEF2;fontColor=#ffffff;strokeColor=#006EAF;" parent="1" vertex="1">
                    <mxGeometry x="242.5" y="415" width="35" height="40" as="geometry"/>
                </mxCell>
                <mxCell id="77" value="" style="verticalLabelPosition=bottom;html=1;verticalAlign=top;align=center;strokeColor=none;fillColor=#00BEF2;shape=mxgraph.azure.computer;pointerEvents=1;fontFamily=Courier New;fontSize=10;" parent="1" vertex="1">
                    <mxGeometry x="617.5" y="185" width="45" height="35" as="geometry"/>
                </mxCell>
                <mxCell id="78" value="" style="shape=datastore;whiteSpace=wrap;html=1;labelPosition=center;verticalLabelPosition=bottom;align=center;verticalAlign=top;fontFamily=Courier New;fontSize=10;fillColor=#00BEF2;fontColor=#ffffff;strokeColor=#006EAF;" parent="1" vertex="1">
                    <mxGeometry x="562.5" y="430" width="35" height="40" as="geometry"/>
                </mxCell>
                <mxCell id="79" value="" style="shape=datastore;whiteSpace=wrap;html=1;labelPosition=center;verticalLabelPosition=bottom;align=center;verticalAlign=top;fontFamily=Courier New;fontSize=10;fillColor=#00BEF2;fontColor=#ffffff;strokeColor=#006EAF;" parent="1" vertex="1">
                    <mxGeometry x="682.5" y="540" width="35" height="40" as="geometry"/>
                </mxCell>
                <mxCell id="82" value="&lt;div style=&quot;&quot;&gt;&lt;span style=&quot;color: rgb(186, 0, 0); font-family: monospace; font-size: 0px;&quot;&gt;CCCCCC&lt;/span&gt;&lt;br&gt;&lt;/div&gt;" style="sketch=0;pointerEvents=1;shadow=0;dashed=0;html=1;labelPosition=center;verticalLabelPosition=bottom;verticalAlign=top;align=center;outlineConnect=0;shape=mxgraph.veeam2.file;fontFamily=Courier New;fontSize=10;fillColor=#00BEF2;fontColor=#ffffff;strokeColor=#006EAF;" parent="1" vertex="1">
                    <mxGeometry x="744.29" y="81.25" width="31.43" height="38.75" as="geometry"/>
                </mxCell>
                <mxCell id="83" value="&lt;span style=&quot;text-align: left;&quot;&gt;user input&lt;br&gt;raw eeg data&lt;br&gt;&lt;/span&gt;" style="whiteSpace=wrap;html=1;fontSize=10;fontFamily=Courier New;align=center;horizontal=1;verticalAlign=top;" parent="1" vertex="1">
                    <mxGeometry x="500" y="40" width="80" height="100" as="geometry"/>
                </mxCell>
                <mxCell id="85" value="&lt;div style=&quot;&quot;&gt;&lt;span style=&quot;color: rgb(186, 0, 0); font-family: monospace; font-size: 0px;&quot;&gt;CCCCCC&lt;/span&gt;&lt;br&gt;&lt;/div&gt;" style="sketch=0;pointerEvents=1;shadow=0;dashed=0;html=1;labelPosition=center;verticalLabelPosition=bottom;verticalAlign=top;align=center;outlineConnect=0;shape=mxgraph.veeam2.file;fontFamily=Courier New;fontSize=10;fillColor=#00BEF2;fontColor=#ffffff;strokeColor=#006EAF;" parent="1" vertex="1">
                    <mxGeometry x="524.29" y="81.25" width="31.43" height="38.75" as="geometry"/>
                </mxCell>
                <mxCell id="88" value="" style="group;align=center;verticalAlign=top;" parent="1" vertex="1" connectable="0">
                    <mxGeometry x="540" y="500" width="80" height="90" as="geometry"/>
                </mxCell>
                <mxCell id="89" value="classified&lt;br&gt;output" style="whiteSpace=wrap;html=1;fontSize=10;fontFamily=Courier New;align=center;horizontal=1;verticalAlign=top;" parent="88" vertex="1">
                    <mxGeometry width="80" height="90" as="geometry"/>
                </mxCell>
                <mxCell id="90" value="&lt;div style=&quot;&quot;&gt;&lt;span style=&quot;color: rgb(186, 0, 0); font-family: monospace; font-size: 0px;&quot;&gt;cc&lt;/span&gt;&lt;br&gt;&lt;/div&gt;" style="sketch=0;pointerEvents=1;shadow=0;dashed=0;html=1;labelPosition=center;verticalLabelPosition=bottom;verticalAlign=top;align=center;outlineConnect=0;shape=mxgraph.veeam2.file;fontFamily=Courier New;fontSize=10;fillColor=#00BEF2;fontColor=#ffffff;strokeColor=#006EAF;" parent="88" vertex="1">
                    <mxGeometry x="24.29" y="40" width="31.43" height="38.75" as="geometry"/>
                </mxCell>
                <mxCell id="91" style="edgeStyle=orthogonalEdgeStyle;html=1;entryX=0;entryY=0.5;entryDx=0;entryDy=0;fontFamily=Courier New;fontSize=10;exitX=0.006;exitY=0.532;exitDx=0;exitDy=0;exitPerimeter=0;" parent="1" source="89" target="7" edge="1">
                    <mxGeometry relative="1" as="geometry">
                        <Array as="points">
                            <mxPoint x="520" y="548"/>
                            <mxPoint x="520" y="190"/>
                        </Array>
                    </mxGeometry>
                </mxCell>
                <mxCell id="94" value="" style="edgeStyle=none;html=1;entryX=0.5;entryY=0;entryDx=0;entryDy=0;" edge="1" parent="1" source="92" target="51">
                    <mxGeometry relative="1" as="geometry">
                        <mxPoint x="700" y="470" as="targetPoint"/>
                    </mxGeometry>
                </mxCell>
                <mxCell id="92" value="feature&lt;br&gt;extraction" style="whiteSpace=wrap;html=1;fontSize=10;fontFamily=Courier New;verticalAlign=top;align=center;" vertex="1" parent="1">
                    <mxGeometry x="660" y="370" width="80" height="90" as="geometry"/>
                </mxCell>
                <mxCell id="93" value="" style="verticalLabelPosition=bottom;html=1;verticalAlign=top;align=center;strokeColor=none;fillColor=#00BEF2;shape=mxgraph.azure.script_file;pointerEvents=1;fontFamily=Courier New;fontSize=10;" vertex="1" parent="1">
                    <mxGeometry x="680" y="405" width="40" height="40" as="geometry"/>
                </mxCell>
            </root>
        </mxGraphModel>
    </diagram>
</mxfile>